# xmcd
#
# Track frame offsets:
#	150
#	16275
#	26526
#	37771
#	55191
#	68117
#	86067
#	99633
#	114826
#	127424
#	140532
#
# Disc length: 2510 seconds
#
# Revision: 0
# Processed by: cddbd v1.5.2PL0 Copyright (c) Steve Scherf et al.
# Submitted via: dBpowerAMP V4.0
#
DISCID=8f09cc0b
DTITLE=Texas Lightning - Call the fire brigade honey, the neighbors got ... Texas Lightning!
DYEAR=2002
DGENRE=Country
TTITLE0=smoke, smoke, smoke  (that cigarette)
TTITLE1=come on in
TTITLE2=the unknown stuntman
TTITLE3=blue bayou
TTITLE4=nowhere road
TTITLE5=kiss
TTITLE6=these boots are made for walking
TTITLE7=carrie brown
TTITLE8=things
TTITLE9=i got texas on my soul
TTITLE10=six days on the road (live)
EXTD=
EXTT0=
EXTT1=
EXTT2=
EXTT3=
EXTT4=
EXTT5=
EXTT6=
EXTT7=
EXTT8=
EXTT9=
EXTT10=
PLAYORDER=
